<svg xmlns="http://www.w3.org/2000/svg" viewBox="0 0 283.46 74.48"><defs><style>.cls-1{fill:#ad1818;}</style></defs><g id="Layer_2" data-name="Layer 2"><g id="Layer_1-2" data-name="Layer 1"><path class="cls-1" d="M12.1,73.5a7.7,7.7,0,0,1-4.09,1,11.37,11.37,0,0,1-4.22-1A10.44,10.44,0,0,1,.47,71.2,3.42,3.42,0,0,1,0,68.78,13.4,13.4,0,0,1,.47,66c.28-1,.63-1.48,1.07-1.48.6,0,1.28.52,2.05,1.56,1.52,1.36,3,1.75,4.54,1.15s3.1-2.21,4.79-4.83c.33-.82.85-2,1.56-3.53s1.46-3.17,2.25-4.91S18.25,50.54,18.9,49s1.1-2.58,1.32-3.24a1.57,1.57,0,0,1,.4-.9c.06-.21.2-.65.42-1.31s.43-1.42.65-2.29c.22-.6.53-1.5.94-2.7s.85-2.46,1.31-3.77.86-2.4,1.19-3.28c.27-1.15.61-2.39,1-3.73s.74-2.36,1-3.07a24.09,24.09,0,0,0,1-2.66c.44-1.34.93-2.8,1.48-4.38q1-3.19,1.76-5.58c.52-1.58.9-2.85,1.15-3.8s.31-1.52.2-1.68c-1.91.32-3.44.6-4.59.82a10.67,10.67,0,0,1-2.82.73c-1,.11-1.36-.19-1.19-.9V6.4q-.25.16-.66-.33a4.88,4.88,0,0,1-.73-1.27,3.37,3.37,0,0,1-.33-1.18c0-.44.64-1,1.92-1.52A16.12,16.12,0,0,1,28.82.91c1.09-.16,2.41-.31,4-.45S35.48.2,36.19.09c.22-.16.71-.11,1.48.17s1.55.6,2.37,1A5,5,0,0,1,41.68,2.3a3.16,3.16,0,0,1,.61,1.4,5.1,5.1,0,0,1-.2,2c-.22.88-.62,2.12-1.19,3.73s-1.38,3.81-2.41,6.6c-1.21,3.38-2.27,6.46-3.2,9.21s-1.78,5-2.54,6.84c-.16.61-.45,1.48-.86,2.63s-.81,2.3-1.19,3.48-.68,2.14-.9,2.91c-.44,1-.85,2.15-1.23,3.35l-.9,2.87a4,4,0,0,1-.33,1.48,3.54,3.54,0,0,1-.74,1.22c-.76,1.92-1.42,3.53-2,4.84-.44,1.09-.92,2.3-1.43,3.64a19.51,19.51,0,0,1-1.44,3.08,10.78,10.78,0,0,1-1,1.84,2.85,2.85,0,0,0-.57,1.19c-.06.33-.2.49-.41.49a1.09,1.09,0,0,0-.49.82,6.47,6.47,0,0,1-1.07,1.56c-.6.7-1.28,1.48-2.05,2.33a24.08,24.08,0,0,1-2.29,2.25A17.24,17.24,0,0,1,12.1,73.5Z"/><path class="cls-1" d="M55.77,58.42a2,2,0,0,1-2.25,1.27,4,4,0,0,1-2.83-1.43,1.89,1.89,0,0,1-1.15-.74,2.81,2.81,0,0,1-2.9-1.11q-1.37-1.52-1-4.95a69.05,69.05,0,0,0,.58-7.17c.05-2.27.05-4.87,0-7.82,0-.28,0-.59,0-.95s.05-.68.08-1,0-.5,0-.61c0-.82.08-2,.08-3.4V26.22a22.63,22.63,0,0,1,.16-3.11,12.73,12.73,0,0,1-.08-2.41c.06-.85.08-1.71.08-2.59a9.15,9.15,0,0,0-.08-1c0-.49-.11-1.09-.16-1.8s-.14-1.45-.25-2.21a13.42,13.42,0,0,0,0-2.5,6.59,6.59,0,0,0-.29-1.23,5.78,5.78,0,0,0-.49-1c-.54-.44-.75-.86-.61-1.27A2.58,2.58,0,0,1,45.53,6a7.32,7.32,0,0,1,1.15-.78,3.18,3.18,0,0,1,2.37.12,11.56,11.56,0,0,1,3,1.44.27.27,0,0,1,.25.16c0,.11.13.28.24.49s.25.48.41.78a11.25,11.25,0,0,0,.66,1,4.33,4.33,0,0,1,.49,2.25c.05,1.17.08,2.57.08,4.18s0,3.23-.12,4.87-.18,3.11-.29,4.42a23.37,23.37,0,0,1,.13,3.2A20.39,20.39,0,0,0,54,31.22c.05.39.09.89.12,1.52s0,1.21,0,1.76A4.24,4.24,0,0,1,54,35.81a5.23,5.23,0,0,0-.17,1.43c0,.58,0,1.43.05,2.54s.06,2.75.12,4.88a23.28,23.28,0,0,1-.21,3.07q-.12.54.45.12c.38-.93.66-1.57.82-1.92s.34-.71.54-1.07.5-1,.94-1.84A7.8,7.8,0,0,0,57,41.67c.25-.74.46-1.49.65-2.25a3.57,3.57,0,0,0,.21-1.32A5,5,0,0,1,59.37,36c.22-.32.39-.58.5-.77a5,5,0,0,0,.28-.62,3.53,3.53,0,0,1,.41-.74c.19-.27.45-.62.78-1.06q.73-1.23,2-3.6c.84-1.59,1.75-3.28,2.7-5.08s1.89-3.47,2.79-5A34.42,34.42,0,0,1,71,15.74a15.78,15.78,0,0,1,.82-1.6,2.75,2.75,0,0,1,1-1,7.29,7.29,0,0,1,.86-1.8A13.43,13.43,0,0,0,74.78,9c1.36-1.69,2.47-3,3.31-4s1.46-1.68,1.85-2.17A10.22,10.22,0,0,1,80.88,2a5.5,5.5,0,0,1,.82-.58,1.36,1.36,0,0,1,.53-.2,6.17,6.17,0,0,1,1.93,1.15,18.41,18.41,0,0,1,2.29,2.09c.68.73,1,1.24.86,1.51a19.54,19.54,0,0,0-1.47,2,25.29,25.29,0,0,1-3,3.56,10.33,10.33,0,0,0-1.47,2.34,14.85,14.85,0,0,1-1.64,2.66,21.59,21.59,0,0,1-1.64,2.66c-.71,1-1.28,1.84-1.72,2.5a6.63,6.63,0,0,1-1,1.68l-1.23,1.51c.11.39.06.66-.16.82a1.71,1.71,0,0,0-.5.58c-.65,1.47-1.14,2.51-1.47,3.11a15.87,15.87,0,0,1-1.39,2,15.69,15.69,0,0,1-.9,1.35,6,6,0,0,0-.9,1.76,6.24,6.24,0,0,0-.82.94,1,1,0,0,0-.17.78,16.76,16.76,0,0,0-1.39,3.2c-.38.6-.79,1.23-1.23,1.88a9,9,0,0,0-1,1.89,3.34,3.34,0,0,1-.66.77,1,1,0,0,0-.41.7A5.65,5.65,0,0,0,62.32,46c-.32.63-.68,1.38-1.06,2.25a17.55,17.55,0,0,0-1.64,2.91,23.47,23.47,0,0,1-1.56,2.91,17.83,17.83,0,0,1-1.14,2.37C56.43,57.33,56,58,55.77,58.42Z"/><path class="cls-1" d="M96,49.4c-.31-.13-.68-.3-1.09-.52A5.36,5.36,0,0,1,93.68,48a3.71,3.71,0,0,1-.88-1.28A8.72,8.72,0,0,1,92.38,45a12.77,12.77,0,0,1-.08-2,15.68,15.68,0,0,1,.23-2.84,14.19,14.19,0,0,1,.74-2.45,4.47,4.47,0,0,0,.23-.55c.12-.3.25-.63.41-1l.36-.81c.17-.36.42-.83.77-1.43s.71-1.17,1.11-1.73c.6-.9,1.12-1.64,1.53-2.21a14,14,0,0,1,1.21-1.46,13.16,13.16,0,0,1,1.28-1.15q.7-.57,1.77-1.29a3.69,3.69,0,0,1,1.77-.62,4,4,0,0,1,2.11.32,3,3,0,0,1,1.54,1.71,3.3,3.3,0,0,1,.31,1.64,7.91,7.91,0,0,1-.38,2.1,11.38,11.38,0,0,1-.87,2.08,6,6,0,0,1-1.19,1.57,1,1,0,0,1-1.08.12,3.16,3.16,0,0,1-1.11-.65,4.17,4.17,0,0,1-.3-.63c0-.06,0-.1.11-.12a6.63,6.63,0,0,0,.5-.76q.32-.52.63-1.14a7.6,7.6,0,0,0,.43-1c.17-.87.29-1.45.35-1.73a.73.73,0,0,0-.19-.71.41.41,0,0,0-.36-.09,2.64,2.64,0,0,0-.77.31,6.11,6.11,0,0,0-1.7,1.27,18.23,18.23,0,0,0-2,2.27q-1.25,1.66-2.1,2.94a11,11,0,0,0-1.28,2.63c0,.08-.16.36-.34.82A2,2,0,0,1,96,39a5.34,5.34,0,0,1-.28.83,14.73,14.73,0,0,0-.41,2.77,8.27,8.27,0,0,0,.18,2.31,3,3,0,0,0,.7,1.46,1.38,1.38,0,0,0,1,.19,6.39,6.39,0,0,0,1.44-.44l1.76-.75a10.3,10.3,0,0,0,1.37-.69,6,6,0,0,0,.94-.66,6.25,6.25,0,0,1,.64-.39,1.47,1.47,0,0,1,.68-.2.47.47,0,0,1,.65.25,2.1,2.1,0,0,1,.22,1,1.71,1.71,0,0,1-.62,1.06,6.73,6.73,0,0,1-1.38,1.07,2.52,2.52,0,0,1-.67.45,7.12,7.12,0,0,1-.86.36,9.35,9.35,0,0,1-1.63,1,10.1,10.1,0,0,1-2,.72A4.16,4.16,0,0,1,96,49.4Z"/><path class="cls-1" d="M107.7,46.49a6.1,6.1,0,0,1-.61-.57,1.07,1.07,0,0,1-.23-1,11.7,11.7,0,0,1,.25-1.55c.1-.45.23-1,.37-1.55a11.55,11.55,0,0,1,.33-1.28c.18-.61.39-1.26.64-2s.51-1.39.78-2a11.54,11.54,0,0,1,.72-1.43,1.47,1.47,0,0,1,1-.31,1.31,1.31,0,0,1,.93.25,1,1,0,0,1,.21,1,8.78,8.78,0,0,1-.87,2.17c-.11.25-.24.52-.39.8a4.08,4.08,0,0,0-.33.69c-.06.18,0,.25.06.23a3.47,3.47,0,0,1,.69-.79c.33-.31.69-.6,1.06-.9s.73-.55,1.07-.78a5.89,5.89,0,0,1,.69-.44,2.6,2.6,0,0,1,.58-.26,3.68,3.68,0,0,0,.45-.18,3,3,0,0,1,1.58-.26c.57,0,.92.23,1,.55a.8.8,0,0,0,.37.5c.09,0,.14.06.16.18s-.14.36-.42.63a1.45,1.45,0,0,1-.92.44,2.24,2.24,0,0,0-.73.16l-.75.31-2.14,1.22a7.94,7.94,0,0,0-2,1.63,5.21,5.21,0,0,1-.47.47,2.85,2.85,0,0,0-.5.62,1.87,1.87,0,0,0-.31.69c-.11.36-.19.69-.27,1a4.67,4.67,0,0,0-.11.58,2.85,2.85,0,0,1-.4.87,1.65,1.65,0,0,1-.74.63C108.32,46.94,108,46.82,107.7,46.49Z"/><path class="cls-1" d="M119,46.67a1.44,1.44,0,0,0-.55-.5c-.28-.17-.42-.29-.42-.37a1,1,0,0,0-.14-.39,1.83,1.83,0,0,0-.27-.4c-.1-.12-.07-.43.1-.92a15.39,15.39,0,0,1,.75-1.8c.33-.71.7-1.43,1.09-2.16a3.34,3.34,0,0,0,.5-.66,3.57,3.57,0,0,1,.38-.53.35.35,0,0,1,.09-.23.28.28,0,0,1,.22-.11l.25-.5a3.38,3.38,0,0,1,.39-.51c.22-.25.49-.52.8-.83s.63-.58,1-.86a5.85,5.85,0,0,1,.8-.59,2.24,2.24,0,0,1,1.36-.41,2,2,0,0,1,1.2.44l.43.38.75.62c.28.23.52.44.73.63l1.16,1L129,39.57a4.32,4.32,0,0,0-.22,2.19,5.15,5.15,0,0,0,.59,1.63,1.42,1.42,0,0,0,.43.53,1.6,1.6,0,0,0,.7.25,1,1,0,0,1,.47.19.56.56,0,0,1,.22.5,1.71,1.71,0,0,1-.27,1.08,1,1,0,0,1-.58.39,4.23,4.23,0,0,1-2-.22,3.48,3.48,0,0,1-1.69-1.79,4.82,4.82,0,0,1-.33-.7,5.91,5.91,0,0,1-.23-.67l-.33.39-.39.42a13.17,13.17,0,0,1-3.81,2.93A2.7,2.7,0,0,1,119,46.67Zm2.41-2.83a11.72,11.72,0,0,0,1.25-.89l1.76-1.5a8.76,8.76,0,0,0,1.34-1.54l.69-1.13a3.05,3.05,0,0,0-.56-.94.8.8,0,0,0-.5-.21,1.56,1.56,0,0,0-1,.51,10.19,10.19,0,0,0-1.27,1.5c-.47.66-1,1.48-1.58,2.46a11.11,11.11,0,0,0-.85,2A1.16,1.16,0,0,0,121.38,43.84Z"/><path class="cls-1" d="M139.76,47.61l-.76-.45a1.2,1.2,0,0,1-.45-.71,6.43,6.43,0,0,1-.14-1.56c0-.38,0-.79-.06-1.25a6.78,6.78,0,0,0-1,1.25,5.43,5.43,0,0,1-1.24,1.69,3.83,3.83,0,0,1-.89.53,1.11,1.11,0,0,1-.6,0,6.64,6.64,0,0,1-1-.32c-.35-.15-.64-.3-.9-.44s-.39-.28-.43-.41a2,2,0,0,1-.07-.7c0-.37,0-.78,0-1.23s.08-.86.14-1.25a3.27,3.27,0,0,1,.22-.83.53.53,0,0,1,0-.2.23.23,0,0,0,0-.23c.27-.92.51-1.7.71-2.32s.38-1.22.56-1.77.31-.92.39-1.11a2,2,0,0,1,.08-.53,2,2,0,0,0,.08-.41.88.88,0,0,1,.31-.6,1.08,1.08,0,0,1,.92-.48,1.43,1.43,0,0,1,.8.3,4.07,4.07,0,0,1,.52.62,1.45,1.45,0,0,1,.2.77,3.61,3.61,0,0,1-.31,1.24c-.21.45-.42.94-.63,1.45s-.39,1-.55,1.41-.26.76-.32,1a1.25,1.25,0,0,1-.08.42,1,1,0,0,0-.08.33.36.36,0,0,0-.11.22,2,2,0,0,0,0,.25,1.75,1.75,0,0,1-.09.42,2.2,2.2,0,0,0-.09.64c-.09.4-.07.62,0,.67a.48.48,0,0,0,.43,0l.28-.44c.12-.21.26-.43.4-.66a1.38,1.38,0,0,1,.27-.5l.24-.22a.5.5,0,0,0,.09-.34,1.25,1.25,0,0,1,.3-.52c.19-.26.41-.56.64-.89q.66-1.12.81-1.44a6.06,6.06,0,0,1,.52-.77,3.24,3.24,0,0,0,.48-.83c.09-.16.2-.36.35-.59a.64.64,0,0,1,.56-.35,1,1,0,0,1,.46.07c.07,0,.14.17.2.4a2.8,2.8,0,0,1,.52.69,1.71,1.71,0,0,1,.26.69.78.78,0,0,0-.15.47,5,5,0,0,1-.44,1.47c-.17.71-.31,1.41-.43,2.1a13.07,13.07,0,0,0-.18,1.72c0,.46,0,.73.14.81s.25,0,.37-.25.42-.72.88-1.4c.1-.17.3-.44.59-.82a4.22,4.22,0,0,0,.63-1,1.32,1.32,0,0,1,.19-.52c.12-.24.25-.5.37-.78a1.75,1.75,0,0,0,.19-.7s.09-.23.31-.57a6.57,6.57,0,0,0,.66-1.28,2,2,0,0,1,1-1.16,1.46,1.46,0,0,1,1.15-.08.61.61,0,0,1,.42.74,11.53,11.53,0,0,1-.71,2.46c-.36.92-.78,1.85-1.25,2.78a26.69,26.69,0,0,1-1.39,2.46,2.47,2.47,0,0,0-.44.52,1.05,1.05,0,0,0-.19.42,1.61,1.61,0,0,1-.26.41c-.18.22-.39.48-.65.76a3.4,3.4,0,0,1-.78.67,1.71,1.71,0,0,1-1,.35A2.29,2.29,0,0,1,139.76,47.61Z"/><path class="cls-1" d="M149.49,51.12a1.67,1.67,0,0,1-.75-.28,3.3,3.3,0,0,1-1.27-1.29,1.35,1.35,0,0,1-.17-.62,6.16,6.16,0,0,1,.12-1,5.65,5.65,0,0,0,.13-.78,8.06,8.06,0,0,1,.11-1c.07-.47.16-.95.25-1.44s.16-.86.2-1.12c0-.1,0-.19.07-.28.1-.35.19-.68.26-1s.13-.59.17-.86c.19-.82.32-1.43.4-1.84a6.91,6.91,0,0,1,.29-1.11c.07-.18.14-.36.22-.53l.22-.47c.08-.17.19-.35.31-.56.42-1.17.77-2.09,1-2.77a19.73,19.73,0,0,1,.81-1.8.69.69,0,0,0,0-.13.13.13,0,0,1,.05-.09,9,9,0,0,1,.82-1.69,12.54,12.54,0,0,1,1.26-1.69,18.92,18.92,0,0,1,1.67-1.69c.44-.21.87-.4,1.3-.57a3.56,3.56,0,0,1,1.24-.25,2.32,2.32,0,0,1,1.12.27,3.5,3.5,0,0,1,.85.61,2.79,2.79,0,0,1,.61.8,1.73,1.73,0,0,1,.2.67,4.37,4.37,0,0,1-.48,1.14,10.14,10.14,0,0,1-.8,1.21c-.29.37-.56.69-.8.94s-.4.37-.48.37a.36.36,0,0,1-.39-.29,5.89,5.89,0,0,0-.24-.65l-.14-.25a1.2,1.2,0,0,0-.17-.21,1.71,1.71,0,0,1,.14-.55,2.22,2.22,0,0,0,.14-.71.75.75,0,0,0-.11-.37q-.11-.19-.3,0a5.63,5.63,0,0,0-.51.36,5.19,5.19,0,0,0-.46.36,3,3,0,0,0-.45.48c-.16.2-.34.44-.55.74l-.25.36a1.4,1.4,0,0,0-.19.33,2.61,2.61,0,0,0-.26.48c-.06.14-.1.26-.14.36s-.08.21-.1.25a.1.1,0,0,1-.09.06,2.28,2.28,0,0,1-.11.29q-.15.34-.36.78c-.09.21-.18.4-.28.59a1.86,1.86,0,0,1-.32.44h0c-.18.48-.33.85-.43,1.1a1.82,1.82,0,0,0-.16.44c0,.1.18.12.55.06s.77-.14,1.22-.24a5.84,5.84,0,0,1,1-.14,1.33,1.33,0,0,1,.45.08.88.88,0,0,1,.33.2,1.51,1.51,0,0,1,.42.68,2.54,2.54,0,0,1,.14.86c0,.16-.15.31-.47.42a12.84,12.84,0,0,1-1.44.42l-1.42.32-1,.21a2.1,2.1,0,0,0-.62.26.86.86,0,0,0-.33.29,1.54,1.54,0,0,0-.17.43,1,1,0,0,1,0,.2.58.58,0,0,1,0,.14l-.12.48c-.06.24-.13.52-.2.83s-.15.64-.22,1-.14.63-.21.92,0,.4-.07.57a1.57,1.57,0,0,0,0,.37,2.34,2.34,0,0,0-.27.75,7.72,7.72,0,0,0-.17.94V47c0,.09,0,.34-.08.77a11.45,11.45,0,0,0-.08,1.33l-.09.91a6,6,0,0,1-.11.8Q149.75,51.12,149.49,51.12Zm9.33-4a1.24,1.24,0,0,1-.94-.5,2,2,0,0,1-.44-1.38,5.7,5.7,0,0,1,.14-1.25q.15-.6.36-1.5c.15-.36.31-.81.49-1.36s.35-1.11.53-1.66.33-1,.45-1.44l.22-.71a.45.45,0,0,1,.16-.25.57.57,0,0,1,.34-.09,1.29,1.29,0,0,1,.72.28,3.1,3.1,0,0,1,.74.71,1.76,1.76,0,0,1,.39.79,1.71,1.71,0,0,1,0,.5,3.64,3.64,0,0,1-.17.49c-.08.2-.2.51-.34.94s-.33,1-.55,1.82-.49,1.83-.8,3.14a2.81,2.81,0,0,1-.47,1.13A1,1,0,0,1,158.82,47.14Zm1.6-14a2.69,2.69,0,0,1,.28-1,6.71,6.71,0,0,1,.69-1.19q.41-.54.78-.54a2.19,2.19,0,0,1,.36,0l.33.09a1.91,1.91,0,0,1,1,1,2.22,2.22,0,0,1,.1,1.61,2.58,2.58,0,0,1-1.44,1.49.53.53,0,0,1-.23.06H162a1.39,1.39,0,0,1-.92-.29,1.88,1.88,0,0,1-.53-.68A1.42,1.42,0,0,1,160.42,33.15Z"/><path class="cls-1" d="M165.83,47.55a2.85,2.85,0,0,1-2.44-1.06,2.32,2.32,0,0,1-.2-1,1.13,1.13,0,0,1,.23-.75c.15-.16.33-.12.53.11a2.3,2.3,0,0,0,1.16.25l.68,0,.7-.05c.48,0,.79-.18.92-.44a.44.44,0,0,0-.11-.62h0a8.58,8.58,0,0,1-1.66-.63,5.82,5.82,0,0,1-1.38-.92,1.87,1.87,0,0,1-.66-1,3.72,3.72,0,0,1,.13-2.13,5.63,5.63,0,0,1,1.09-1.91q.28-.18.78-.54a2.15,2.15,0,0,1,.72-.39v0a5.11,5.11,0,0,1,1.35-1,12.8,12.8,0,0,1,1.75-.74l.5-.06a4.24,4.24,0,0,1,.66-.06l.16.06.31.1a.88.88,0,0,0,.38.09,1.6,1.6,0,0,1,.86.45,3.42,3.42,0,0,1,.69.91,1.67,1.67,0,0,1,.2,1,3.53,3.53,0,0,1-.53,1.42,1.54,1.54,0,0,1-.94.8s0-.06-.13-.13l-.34-.18-.13.06a1,1,0,0,0-.09-.31,1.66,1.66,0,0,1-.17-.47,2.12,2.12,0,0,1,0-.57,1.08,1.08,0,0,0,0-.41s-.14-.07-.37-.09a2.16,2.16,0,0,0-1,.08,3.29,3.29,0,0,0-1.15.58,9.25,9.25,0,0,0-.93.66,2,2,0,0,0-.45.48,4.43,4.43,0,0,0-.35.67l-.21.4a.6.6,0,0,0-.1.32c0,.21.18.43.53.65a13.14,13.14,0,0,0,1.6.76,2,2,0,0,1,1.11.94c.18.4.34.77.49,1.13a2.21,2.21,0,0,1,.14.45c.05.22.05.35,0,.39a.24.24,0,0,1,.07.13v0a.93.93,0,0,1-.08,1,3,3,0,0,1-1,.94,4.66,4.66,0,0,1-1.56.61h0c-.32,0-.62.08-.93.1Z"/><path class="cls-1" d="M174.91,46.14a.7.7,0,0,1-.49-.17,6,6,0,0,0-.48-.36,2.78,2.78,0,0,1-.44-.66,1.61,1.61,0,0,1-.12-.63,6.57,6.57,0,0,1,.06-.81c.1-.33.23-.78.37-1.35s.33-1.16.54-1.81a6.19,6.19,0,0,1,.23-.89c.12-.35.24-.68.36-1s.22-.56.28-.73c.15-.52.3-1,.46-1.5s.35-1,.58-1.66.51-1.42.84-2.38l1-2.82.5-1.34a5,5,0,0,0,.22-.66c0-.17.12-.33.36-.49a1.28,1.28,0,0,1,.65-.23,1.24,1.24,0,0,1,.84.51,2.73,2.73,0,0,1,.56,1.16,1.67,1.67,0,0,1-.21,1.3q-.51,1.13-1,2.52l-1,2.77c-.31.92-.62,1.77-.93,2.54A3.62,3.62,0,0,1,178,38c-.11.25-.21.46-.29.63s-.2.39-.35.68q0,.19-.12.54c-.07.23-.13.42-.19.59a3.93,3.93,0,0,1-.1.41,4.37,4.37,0,0,0-.09.5,3.59,3.59,0,0,1,.44-.45l.72-.68.87-.75a7.38,7.38,0,0,1,.76-.56l.93-.69c.05-.06.09-.14.15-.22a.33.33,0,0,1,.17-.16,1.3,1.3,0,0,1,.22-.17l.31-.23a3.77,3.77,0,0,1,.59-.32,3.57,3.57,0,0,1,.66-.18,3.09,3.09,0,0,1,.66-.07,1.32,1.32,0,0,1,.78.3,3.06,3.06,0,0,1,.75.83,2,2,0,0,1,.39,1,6.82,6.82,0,0,1,0,1.46,6.15,6.15,0,0,1-.14.94c-.09.46-.16.8-.2,1l-.29,1.07h.25a1.64,1.64,0,0,1,1,.06,1.48,1.48,0,0,1,.29.22l.27.19q.18.24-.06.72a1.62,1.62,0,0,1-.57.65,3.83,3.83,0,0,1-1.33.63,1.72,1.72,0,0,1-1.2-.22,2,2,0,0,1-.8-1,4.19,4.19,0,0,1-.17-1.53c.08-.92.13-1.58.15-2s-.08-.61-.31-.61a2.31,2.31,0,0,0-1,.36,11.68,11.68,0,0,0-1.42,1c-.52.41-1,.85-1.55,1.34a15.31,15.31,0,0,0-1.36,1.49c-.25.31-.52.62-.82.93A1.52,1.52,0,0,1,174.91,46.14Z"/><path class="cls-1" d="M199.86,49.4c-.31-.13-.68-.3-1.1-.52a5.86,5.86,0,0,1-1.19-.86,3.82,3.82,0,0,1-.87-1.28,9.48,9.48,0,0,1-.43-1.79,12.87,12.87,0,0,1-.07-2,14.82,14.82,0,0,1,.23-2.84,13.37,13.37,0,0,1,.74-2.45,4.47,4.47,0,0,0,.23-.55c.12-.3.25-.63.41-1s.28-.62.36-.81c.17-.36.42-.83.77-1.43s.71-1.17,1.11-1.73c.6-.9,1.11-1.64,1.53-2.21a14,14,0,0,1,1.21-1.46,13.16,13.16,0,0,1,1.28-1.15q.7-.57,1.77-1.29a3.69,3.69,0,0,1,1.77-.62,4,4,0,0,1,2.11.32,3,3,0,0,1,1.53,1.71,3.3,3.3,0,0,1,.32,1.64,8.34,8.34,0,0,1-.38,2.1,10.74,10.74,0,0,1-.88,2.08,6,6,0,0,1-1.18,1.57,1,1,0,0,1-1.09.12,3.36,3.36,0,0,1-1.11-.65,4.78,4.78,0,0,1-.29-.63c0-.06,0-.1.11-.12a6.63,6.63,0,0,0,.5-.76c.21-.35.41-.73.62-1.14a6.65,6.65,0,0,0,.44-1c.17-.87.28-1.45.35-1.73a.73.73,0,0,0-.19-.71.43.43,0,0,0-.36-.09,2.64,2.64,0,0,0-.77.31,6.28,6.28,0,0,0-1.71,1.27A18.2,18.2,0,0,0,203.68,32q-1.26,1.66-2.1,2.94a11,11,0,0,0-1.28,2.63c-.05.08-.16.36-.35.82a1.84,1.84,0,0,1-.09.61,5.34,5.34,0,0,1-.28.83,14.73,14.73,0,0,0-.41,2.77,8.7,8.7,0,0,0,.17,2.31,3,3,0,0,0,.71,1.46,1.38,1.38,0,0,0,1,.19,6.39,6.39,0,0,0,1.44-.44l1.75-.75a11.1,11.1,0,0,0,1.38-.69,6,6,0,0,0,.94-.66,6.25,6.25,0,0,1,.64-.39,1.46,1.46,0,0,1,.67-.2.47.47,0,0,1,.66.25,2.1,2.1,0,0,1,.22,1,1.69,1.69,0,0,1-.63,1.06,6.41,6.41,0,0,1-1.37,1.07,2.43,2.43,0,0,1-.68.45,6.5,6.5,0,0,1-.86.36,9.24,9.24,0,0,1-1.62,1,10.1,10.1,0,0,1-2,.72A4.16,4.16,0,0,1,199.86,49.4Z"/><path class="cls-1" d="M211.75,46.67a1.4,1.4,0,0,0-.54-.5c-.29-.17-.43-.29-.43-.37a.83.83,0,0,0-.14-.39,1.84,1.84,0,0,0-.26-.4c-.11-.12-.08-.43.09-.92s.42-1.09.75-1.8.7-1.43,1.1-2.16a4.34,4.34,0,0,0,.5-.66,3.76,3.76,0,0,1,.37-.53.32.32,0,0,1,.1-.23.25.25,0,0,1,.22-.11l.25-.5a2.78,2.78,0,0,1,.39-.51c.22-.25.48-.52.8-.83s.63-.58,1-.86a5.85,5.85,0,0,1,.8-.59,2.26,2.26,0,0,1,1.36-.41,2,2,0,0,1,1.21.44l.42.38.75.62c.28.23.53.44.74.63l1.16,1-.54,1.57a4.43,4.43,0,0,0-.22,2.19,5.41,5.41,0,0,0,.6,1.63,1.31,1.31,0,0,0,.42.53,1.65,1.65,0,0,0,.7.25.92.92,0,0,1,.47.19.56.56,0,0,1,.22.5,1.78,1.78,0,0,1-.26,1.08,1,1,0,0,1-.58.39,4.21,4.21,0,0,1-2-.22,3.45,3.45,0,0,1-1.69-1.79,3.32,3.32,0,0,1-.33-.7,4.86,4.86,0,0,1-.24-.67l-.33.39a5.36,5.36,0,0,1-.39.42,13.28,13.28,0,0,1-3.8,2.93A2.72,2.72,0,0,1,211.75,46.67Zm2.41-2.83a11.64,11.64,0,0,0,1.26-.89l1.75-1.5a8.39,8.39,0,0,0,1.35-1.54l.68-1.13a2.7,2.7,0,0,0-.56-.94.78.78,0,0,0-.5-.21,1.58,1.58,0,0,0-1,.51,10.19,10.19,0,0,0-1.27,1.5c-.47.66-1,1.48-1.58,2.46a11.2,11.2,0,0,0-.84,2A1.15,1.15,0,0,0,214.16,43.84Z"/><path class="cls-1" d="M229,47.52a3,3,0,0,1-.87-.44,11,11,0,0,1-.91-.72,3.57,3.57,0,0,1-.53-.92,3,3,0,0,1-.18-1c0-.38,0-.88,0-1.48a6.13,6.13,0,0,1,.14-1.07c.09-.46.2-.94.31-1.44s.23-.94.33-1.33.17-.64.19-.76c.06-.28,0-.43-.31-.47a4.33,4.33,0,0,0-.9-.05,1.39,1.39,0,0,1-.64-.08q-.12,0-.12-.63a.18.18,0,0,0-.13-.17.51.51,0,0,1-.22-.2c0-.08,0-.24.16-.47a.82.82,0,0,1,.56-.41,7,7,0,0,1,.85-.11,5.33,5.33,0,0,0,1.14-.22,1.73,1.73,0,0,0,.89-.54c.19-.46.4-1,.63-1.49s.45-1,.66-1.41a5.79,5.79,0,0,1,.43-.77,2,2,0,0,1,1.1-.23,1.08,1.08,0,0,1,.88.55,1.88,1.88,0,0,0,.26.31.3.3,0,0,1,.1.28,2.5,2.5,0,0,1-.25.67c-.16.33-.42.82-.77,1.49-.11.21-.24.47-.41.78a1.69,1.69,0,0,0,.38,0c.16,0,.37,0,.62,0l.76-.11a2.34,2.34,0,0,1,.71,0,1.32,1.32,0,0,1,1.07.41,1.72,1.72,0,0,1,.38,1,.59.59,0,0,1-.26.59,1.88,1.88,0,0,1-1.15.25l-.82,0-1.09.06c-.38,0-.7.05-1,.08s-.39.06-.39.11a1.62,1.62,0,0,0-.3.48,9.09,9.09,0,0,0-.4,1c-.14.4-.26.77-.36,1.13a20.3,20.3,0,0,0-.32,2.06,9.23,9.23,0,0,0,0,1.74,1.84,1.84,0,0,0,.36,1c.19.19.47.18.86,0a6.87,6.87,0,0,0,1.08-.7,1,1,0,0,1,1-.3.93.93,0,0,1,.52.69,1.45,1.45,0,0,1-.3,1.11,3,3,0,0,1-1.07,1,5.07,5.07,0,0,1-1.4.58A2.46,2.46,0,0,1,229,47.52Z"/><path class="cls-1" d="M240,47.05a1.91,1.91,0,0,1-.94.15,5.54,5.54,0,0,1-1.44-.34,1.61,1.61,0,0,1-.44-.28,7.39,7.39,0,0,1-.75-.66,2.54,2.54,0,0,1-.5-.63,2.92,2.92,0,0,1-.3-2.12,15.76,15.76,0,0,1,1-3.38,10.07,10.07,0,0,1,.67-1.19c.3-.48.61-.93.91-1.33a2.6,2.6,0,0,1,.64-.71A9.47,9.47,0,0,0,240,36l.55-.16.81-.17a2,2,0,0,1,.58-.05,2.73,2.73,0,0,1,1.3.46,4.21,4.21,0,0,1,1.11,1,.94.94,0,0,1,.28,1,1.37,1.37,0,0,1-.17.39q-.16.33-.36.66a4.39,4.39,0,0,1-.31.49.64.64,0,0,1-.55.15,1.35,1.35,0,0,1-.7-.25.76.76,0,0,1-.35-.59q-.06-.26-.84-.69c-.17,0-.39.17-.66.5s-.55.71-.84,1.13a3.12,3.12,0,0,0-.8,1.2,6.45,6.45,0,0,0-.32,1.19,5.1,5.1,0,0,1-.17.83,1.29,1.29,0,0,0,0,.78c.08.32.19.49.31.54a3.19,3.19,0,0,0,.77,0c.32-.05.67-.13,1-.22s.74-.2,1.12-.31.7-.24,1-.36a1.5,1.5,0,0,1,1-.3c.29.05.51.1.66.14a.5.5,0,0,1,.34.53,1.62,1.62,0,0,1-.28.86,2.08,2.08,0,0,1-.81.74,6,6,0,0,0-.9.55q-.39.3-.39.45a.56.56,0,0,0-.26.08.33.33,0,0,1-.24.05l-.5.09c-.29.06-.59.14-.89.22A2.72,2.72,0,0,0,240,47.05Z"/><path class="cls-1" d="M248.5,46.14A.69.69,0,0,1,248,46c-.18-.14-.34-.26-.49-.36a3.13,3.13,0,0,1-.44-.66,1.61,1.61,0,0,1-.12-.63,6.57,6.57,0,0,1,.06-.81c.11-.33.23-.78.38-1.35s.32-1.16.53-1.81a6.19,6.19,0,0,1,.23-.89c.12-.35.24-.68.37-1s.21-.56.28-.73q.21-.78.45-1.5c.16-.48.35-1,.58-1.66s.51-1.42.85-2.38c.45-1.25.8-2.19,1-2.82s.39-1.07.5-1.34.18-.49.22-.66.12-.33.36-.49a1,1,0,0,1,1.48.28,2.75,2.75,0,0,1,.57,1.16,1.72,1.72,0,0,1-.22,1.3c-.34.75-.66,1.59-1,2.52s-.64,1.85-1,2.77-.63,1.77-.94,2.54a3.25,3.25,0,0,1-.2.53l-.3.63c-.09.16-.2.39-.35.68q0,.19-.12.54c-.06.23-.13.42-.19.59s0,.24-.09.41a3,3,0,0,0-.1.5,4.48,4.48,0,0,1,.44-.45l.72-.68.88-.75a7.29,7.29,0,0,1,.75-.56l.94-.69.14-.22a.36.36,0,0,1,.17-.16l.22-.17.31-.23a3.46,3.46,0,0,1,.6-.32,3.57,3.57,0,0,1,.66-.18,2.94,2.94,0,0,1,.65-.07,1.37,1.37,0,0,1,.79.3,3.06,3.06,0,0,1,.75.83,2,2,0,0,1,.39,1,6.92,6.92,0,0,1,0,1.46,5.07,5.07,0,0,1-.14.94c-.09.46-.16.8-.2,1l-.28,1.07h.25a1.61,1.61,0,0,1,1,.06,1.91,1.91,0,0,1,.3.22,1.88,1.88,0,0,0,.26.19q.19.24-.06.72a1.6,1.6,0,0,1-.56.65,3.92,3.92,0,0,1-1.33.63,1.73,1.73,0,0,1-1.21-.22,2,2,0,0,1-.8-1,4.42,4.42,0,0,1-.17-1.53c.08-.92.14-1.58.16-2s-.09-.61-.32-.61a2.24,2.24,0,0,0-1,.36,11,11,0,0,0-1.43,1c-.52.41-1,.85-1.55,1.34a16.7,16.7,0,0,0-1.36,1.49q-.37.47-.81.93A1.54,1.54,0,0,1,248.5,46.14Z"/><path class="cls-1" d="M265.25,47.89a3.39,3.39,0,0,1-2.64-1,4.39,4.39,0,0,1-.93-3.07,8.08,8.08,0,0,1,.43-2.47,14.33,14.33,0,0,1,1.12-2.63,12.8,12.8,0,0,1,1.55-2.24,5.18,5.18,0,0,1,1.69-1.33,3.12,3.12,0,0,1,.67-.23,3.51,3.51,0,0,1,.71-.08c.25,0,.53,0,.83,0a3.48,3.48,0,0,1,.86.2,2.78,2.78,0,0,1,1.27.85,2.68,2.68,0,0,1,.55,1.81,4.13,4.13,0,0,1-.07.67,2.65,2.65,0,0,1-.22.71,6.72,6.72,0,0,1-1.23,2,4.78,4.78,0,0,1-1.74,1.31,1.72,1.72,0,0,1-.49.18,2.45,2.45,0,0,1-.48,0,3.51,3.51,0,0,1-1.17-.18,4.36,4.36,0,0,1-1-.5l-.25-.22-.16.31a7.12,7.12,0,0,0-.29,1,2.89,2.89,0,0,0-.08.6c0,.25,0,.5,0,.76a1.31,1.31,0,0,0,.19.64.76.76,0,0,0,.33.25,1.08,1.08,0,0,0,.51.1l.36,0,.3,0a2.19,2.19,0,0,0,.92-.43,4.89,4.89,0,0,1,.77-.51l.13-.07,0-.09q.54-.28.72-.36a2,2,0,0,0,.29-.14.39.39,0,0,1,.28-.13,1.18,1.18,0,0,1,.86.24.87.87,0,0,1,.42.73,1.37,1.37,0,0,1-.26.6,5.27,5.27,0,0,1-.66.8,3.62,3.62,0,0,1-.8.61l-.19.08-.19.11h0a.73.73,0,0,1-.56.37h-.25a1.66,1.66,0,0,1-.81.49A3.89,3.89,0,0,1,265.25,47.89Zm1.63-7.54a1.27,1.27,0,0,0,.52-.1,4.54,4.54,0,0,0,.45-.21,2.44,2.44,0,0,0,1-1.38,1.38,1.38,0,0,0-.16-1.29.5.5,0,0,0-.15-.14.54.54,0,0,0-.22,0,1.65,1.65,0,0,0-.77.22,3.26,3.26,0,0,0-.83.62,5.41,5.41,0,0,0-.75,1l-.41.66.11,0h.08a.38.38,0,0,1,.38.19,2.49,2.49,0,0,0,.23.37A.64.64,0,0,0,266.88,40.35Z"/><path class="cls-1" d="M275.05,46.67a1,1,0,0,1-.39,0q-.3-.06-.6-.15a1.64,1.64,0,0,1-.36-.16,3.64,3.64,0,0,1-.34-.46,1.52,1.52,0,0,1-.23-.89,2.35,2.35,0,0,1,.51-1.34,8.86,8.86,0,0,0,.38-.94l.45-1.33c.16-.47.3-.9.44-1.27a7.35,7.35,0,0,1,.3-.78,1.59,1.59,0,0,0,0-.77c-.07-.16-.26-.25-.55-.27a.55.55,0,0,1-.48-.22,1.24,1.24,0,0,1-.18-.78,2.49,2.49,0,0,1,.24-.77,1.38,1.38,0,0,1,.48-.54,2.38,2.38,0,0,1,.8-.22,5.17,5.17,0,0,1,1,0,1,1,0,0,1,.66.22.92.92,0,0,1,.35.54,6.46,6.46,0,0,1,.24.86q.09.45.12.66a5.72,5.72,0,0,0,.71-.7c.26-.31.53-.59.8-.86a11,11,0,0,1,1.19-.71,2.56,2.56,0,0,1,1-.36,1.61,1.61,0,0,1,.84.33,1.71,1.71,0,0,1,.63.58,3.81,3.81,0,0,1,.45,1.11,1.11,1.11,0,0,1-.2,1,3.87,3.87,0,0,1-.88.8,1.78,1.78,0,0,1-1.41.23c-.12,0-.25-.2-.39-.47a2.67,2.67,0,0,1-.23-.59c0-.07-.09,0-.27.17l-.62.64-.68.69a11.14,11.14,0,0,0-1.12,1.78q-.6,1.13-1.41,2.73c-.25.52-.46,1-.63,1.48S275.24,46.61,275.05,46.67Z"/></g></g></svg>